<svg width="355" height="203" viewBox="0 0 355 203" fill="none" xmlns="http://www.w3.org/2000/svg">
<path opacity="0.15" d="M340.826 222.551C310.82 192.545 270.123 175.688 227.688 175.688C185.254 175.688 144.557 192.545 114.551 222.551C84.5456 252.557 67.6885 293.254 67.6885 335.688C67.6885 378.123 84.5456 418.82 114.551 448.825" stroke="white" stroke-width="2" stroke-linecap="round" stroke-linejoin="round"/>
<path opacity="0.15" d="M406.826 114.551C376.82 84.5454 336.123 67.6883 293.688 67.6883C251.254 67.6883 210.557 84.5454 180.551 114.551C150.546 144.557 133.688 185.254 133.688 227.688C133.688 270.123 150.546 310.82 180.551 340.825" stroke="white" stroke-width="2" stroke-linecap="round" stroke-linejoin="round"/>
<path opacity="0.15" d="M391.826 163.551C361.82 133.545 321.123 116.688 278.688 116.688C236.254 116.688 195.557 133.545 165.551 163.551C135.546 193.557 118.688 234.254 118.688 276.688C118.688 319.123 135.546 359.82 165.551 389.825" stroke="white" stroke-width="2" stroke-linecap="round" stroke-linejoin="round"/>
</svg>
