<svg width="20" height="21" viewBox="0 0 20 21" fill="none" xmlns="http://www.w3.org/2000/svg">
<path fill-rule="evenodd" clip-rule="evenodd" d="M5.12318 8.45107C4.52295 5.44993 6.81842 2.6499 9.87899 2.6499H10.4998C13.1864 2.6499 15.3498 4.85874 15.3498 7.52923C15.3498 9.02259 14.6614 10.4511 13.4774 11.3719L10.9077 13.3706C10.8711 13.399 10.8498 13.4427 10.8498 13.489V13.9999C10.8498 14.4693 10.4692 14.8499 9.99978 14.8499C9.53033 14.8499 9.14978 14.4693 9.14978 13.9999V13.489C9.14978 12.9181 9.41335 12.3792 9.86399 12.0287L12.4337 10.03C13.1984 9.43525 13.6498 8.50458 13.6498 7.52923C13.6498 5.78143 12.2314 4.3499 10.4998 4.3499H9.87899C7.8912 4.3499 6.40032 6.16847 6.79016 8.11767L6.83327 8.3332C6.92533 8.79353 6.6268 9.24133 6.16647 9.3334C5.70615 9.42546 5.25835 9.12693 5.16628 8.6666L5.12318 8.45107Z" fill="black"/>
<circle cx="10.0008" cy="17.2" r="0.6" stroke="black" stroke-width="1.2"/>
</svg>
