<svg width="20" height="21" viewBox="0 0 20 21" fill="none" xmlns="http://www.w3.org/2000/svg">
<path fill-rule="evenodd" clip-rule="evenodd" d="M6.75 3.25C6.75 2.83579 6.41421 2.5 6 2.5C5.58579 2.5 5.25 2.83579 5.25 3.25V4.50879C3.43368 4.63698 2 6.15106 2 8V9C2 10.8489 3.43368 12.363 5.25 12.4912L5.25 17.75C5.25 18.1642 5.58579 18.5 6 18.5C6.41421 18.5 6.75 18.1642 6.75 17.75L6.75 12.4912C8.56632 12.363 10 10.8489 10 9V8C10 6.15106 8.56632 4.63698 6.75 4.50879V3.25ZM8.5 8C8.5 6.89543 7.60457 6 6.5 6H5.5C4.39543 6 3.5 6.89543 3.5 8V9C3.5 10.1046 4.39543 11 5.5 11H6.5C7.60457 11 8.5 10.1046 8.5 9V8Z" fill="black"/>
<path fill-rule="evenodd" clip-rule="evenodd" d="M13.25 3.25L13.25 8.50879C11.4337 8.63698 10 10.1511 10 12V13C10 14.8489 11.4337 16.363 13.25 16.4912L13.25 17.75C13.25 18.1642 13.5858 18.5 14 18.5C14.4142 18.5 14.75 18.1642 14.75 17.75L14.75 16.4912C16.5663 16.363 18 14.8489 18 13V12C18 10.1511 16.5663 8.63698 14.75 8.50879L14.75 3.25C14.75 2.83579 14.4142 2.5 14 2.5C13.5858 2.5 13.25 2.83579 13.25 3.25ZM13.5 10C12.3954 10 11.5 10.8954 11.5 12V13C11.5 14.1046 12.3954 15 13.5 15H14.5C15.6046 15 16.5 14.1046 16.5 13V12C16.5 10.8954 15.6046 10 14.5 10H13.5Z" fill="black"/>
</svg>
