<svg width="24" height="24" viewBox="0 0 24 24" fill="none" xmlns="http://www.w3.org/2000/svg">
<path d="M16.5281 9.36563C16.5791 9.41831 16.619 9.4806 16.6457 9.54887C16.6724 9.61714 16.6852 9.69003 16.6835 9.7633C16.6817 9.83657 16.6654 9.90876 16.6356 9.97569C16.6057 10.0426 16.5628 10.1029 16.5094 10.1531L11.0156 15.4031C10.9087 15.5032 10.7684 15.56 10.6219 15.5625C10.4781 15.5605 10.3405 15.5034 10.2375 15.4031L7.49063 12.7781C7.38371 12.6762 7.32167 12.5359 7.31816 12.3883C7.31464 12.2406 7.36994 12.0975 7.47188 11.9906C7.57382 11.8837 7.71406 11.8217 7.86175 11.8182C8.00943 11.8146 8.15246 11.8699 8.25938 11.9719L10.6219 14.2219L15.7406 9.34687C15.7933 9.29593 15.8556 9.25596 15.9239 9.22929C15.9921 9.20262 16.065 9.18978 16.1383 9.19153C16.2116 9.19327 16.2838 9.20956 16.3507 9.23945C16.4176 9.26934 16.4779 9.31223 16.5281 9.36563ZM21.5625 12C21.5625 13.8913 21.0017 15.7401 19.9509 17.3126C18.9002 18.8852 17.4067 20.1108 15.6594 20.8346C13.9121 21.5584 11.9894 21.7477 10.1345 21.3788C8.27951 21.0098 6.57564 20.099 5.2383 18.7617C3.90096 17.4244 2.99022 15.7205 2.62125 13.8656C2.25227 12.0106 2.44164 10.0879 3.16541 8.34059C3.88917 6.59327 5.11482 5.09981 6.68736 4.04907C8.25991 2.99833 10.1087 2.4375 12 2.4375C14.5346 2.44246 16.964 3.45152 18.7562 5.24376C20.5485 7.03601 21.5575 9.46539 21.5625 12ZM20.4375 12C20.4375 10.3312 19.9427 8.69992 19.0155 7.31238C18.0884 5.92484 16.7706 4.84338 15.2289 4.20477C13.6871 3.56615 11.9906 3.39906 10.3539 3.72462C8.71722 4.05019 7.2138 4.85378 6.03379 6.03379C4.85379 7.21379 4.05019 8.71721 3.72463 10.3539C3.39907 11.9906 3.56616 13.6871 4.20477 15.2289C4.84338 16.7706 5.92484 18.0884 7.31238 19.0155C8.69992 19.9426 10.3312 20.4375 12 20.4375C14.237 20.435 16.3817 19.5453 17.9635 17.9635C19.5453 16.3817 20.435 14.237 20.4375 12Z" fill="#212121"/>
</svg>
