<svg width="19" height="19" viewBox="0 0 19 19" fill="none" xmlns="http://www.w3.org/2000/svg">
<path d="M8.77381 2.23535H7.32082C3.68834 2.23535 2.23535 3.68834 2.23535 7.32082V11.6798C2.23535 15.3123 3.68834 16.7653 7.32082 16.7653H11.6798C15.3123 16.7653 16.7653 15.3123 16.7653 11.6798V10.2268" stroke="white" stroke-width="1.5" stroke-linecap="round" stroke-linejoin="round"/>
<path d="M12.4353 2.97628L6.71049 8.70106C6.49255 8.91901 6.2746 9.34764 6.23101 9.66004L5.91861 11.8468C5.80237 12.6387 6.36178 13.1908 7.15366 13.0818L9.34041 12.7694C9.64554 12.7258 10.0742 12.5079 10.2994 12.29L16.0242 6.56517C17.0122 5.57713 17.4772 4.42927 16.0242 2.97628C14.5712 1.52329 13.4233 1.98824 12.4353 2.97628Z" stroke="white" stroke-width="1.5" stroke-miterlimit="10" stroke-linecap="round" stroke-linejoin="round"/>
<path d="M11.6143 3.79688C12.101 5.5332 13.4596 6.89175 15.2031 7.38576" stroke="white" stroke-width="1.5" stroke-miterlimit="10" stroke-linecap="round" stroke-linejoin="round"/>
</svg>
