<svg width="45" height="45" viewBox="0 0 45 45" fill="none" xmlns="http://www.w3.org/2000/svg">
<g filter="url(#filter0_d_16_17195)">
<g clip-path="url(#clip0_16_17195)">
<rect x="2.16602" y="1.5" width="40" height="40" rx="20" fill="#74C69D"/>
<g filter="url(#filter1_d_16_17195)">
<path d="M27.582 12.1185C29.216 13.062 30.5752 14.4158 31.5252 16.046C32.4751 17.6761 32.9828 19.5261 32.9981 21.4128C33.0133 23.2995 32.5355 25.1575 31.6121 26.8028C30.6886 28.4481 29.3514 29.8237 27.7329 30.7934C26.1144 31.7631 24.2707 32.2933 22.3843 32.3314C20.4979 32.3696 18.6343 31.9145 16.9779 31.0111C15.3215 30.1076 13.9297 28.7873 12.9404 27.1807C11.9511 25.5741 11.3986 23.737 11.3374 21.8512L11.332 21.5002L11.3374 21.1492C11.3981 19.2783 11.9425 17.455 12.9176 15.8571C13.8927 14.2592 15.2652 12.9413 16.9013 12.0317C18.5374 11.1222 20.3813 10.6521 22.2531 10.6673C24.125 10.6826 25.9609 11.1825 27.582 12.1185ZM26.1813 18.5676C25.9947 18.3811 25.7465 18.2691 25.4833 18.2525C25.22 18.2359 24.9597 18.316 24.7513 18.4777L24.6494 18.5676L21.082 22.134L19.6813 20.7343L19.5794 20.6444C19.371 20.4828 19.1108 20.4028 18.8476 20.4194C18.5843 20.436 18.3362 20.5481 18.1497 20.7346C17.9632 20.9211 17.8512 21.1692 17.8346 21.4324C17.818 21.6956 17.898 21.9558 18.0595 22.1643L18.1494 22.2661L20.3161 24.4328L20.4179 24.5227C20.6079 24.6701 20.8416 24.7501 21.082 24.7501C21.3225 24.7501 21.5561 24.6701 21.7461 24.5227L21.8479 24.4328L26.1813 20.0995L26.2712 19.9976C26.4329 19.7892 26.513 19.5289 26.4964 19.2656C26.4799 19.0024 26.3678 18.7542 26.1813 18.5676Z" fill="#F7F7F7"/>
<path d="M27.582 12.1185C29.216 13.062 30.5752 14.4158 31.5252 16.046C32.4751 17.6761 32.9828 19.5261 32.9981 21.4128C33.0133 23.2995 32.5355 25.1575 31.6121 26.8028C30.6886 28.4481 29.3514 29.8237 27.7329 30.7934C26.1144 31.7631 24.2707 32.2933 22.3843 32.3314C20.4979 32.3696 18.6343 31.9145 16.9779 31.0111C15.3215 30.1076 13.9297 28.7873 12.9404 27.1807C11.9511 25.5741 11.3986 23.737 11.3374 21.8512L11.332 21.5002L11.3374 21.1492C11.3981 19.2783 11.9425 17.455 12.9176 15.8571C13.8927 14.2592 15.2652 12.9413 16.9013 12.0317C18.5374 11.1222 20.3813 10.6521 22.2531 10.6673C24.125 10.6826 25.9609 11.1825 27.582 12.1185ZM26.1813 18.5676C25.9947 18.3811 25.7465 18.2691 25.4833 18.2525C25.22 18.2359 24.9597 18.316 24.7513 18.4777L24.6494 18.5676L21.082 22.134L19.6813 20.7343L19.5794 20.6444C19.371 20.4828 19.1108 20.4028 18.8476 20.4194C18.5843 20.436 18.3362 20.5481 18.1497 20.7346C17.9632 20.9211 17.8512 21.1692 17.8346 21.4324C17.818 21.6956 17.898 21.9558 18.0595 22.1643L18.1494 22.2661L20.3161 24.4328L20.4179 24.5227C20.6079 24.6701 20.8416 24.7501 21.082 24.7501C21.3225 24.7501 21.5561 24.6701 21.7461 24.5227L21.8479 24.4328L26.1813 20.0995L26.2712 19.9976C26.4329 19.7892 26.513 19.5289 26.4964 19.2656C26.4799 19.0024 26.3678 18.7542 26.1813 18.5676Z" fill="url(#paint0_linear_16_17195)" fill-opacity="0.14"/>
</g>
</g>
</g>
<defs>
<filter id="filter0_d_16_17195" x="0.166016" y="0.5" width="44" height="44" filterUnits="userSpaceOnUse" color-interpolation-filters="sRGB">
<feFlood flood-opacity="0" result="BackgroundImageFix"/>
<feColorMatrix in="SourceAlpha" type="matrix" values="0 0 0 0 0 0 0 0 0 0 0 0 0 0 0 0 0 0 127 0" result="hardAlpha"/>
<feOffset dy="1"/>
<feGaussianBlur stdDeviation="1"/>
<feComposite in2="hardAlpha" operator="out"/>
<feColorMatrix type="matrix" values="0 0 0 0 0.321569 0 0 0 0 0.345098 0 0 0 0 0.4 0 0 0 0.06 0"/>
<feBlend mode="normal" in2="BackgroundImageFix" result="effect1_dropShadow_16_17195"/>
<feBlend mode="normal" in="SourceGraphic" in2="effect1_dropShadow_16_17195" result="shape"/>
</filter>
<filter id="filter1_d_16_17195" x="1.95272" y="10.667" width="31.0453" height="33.3906" filterUnits="userSpaceOnUse" color-interpolation-filters="sRGB">
<feFlood flood-opacity="0" result="BackgroundImageFix"/>
<feColorMatrix in="SourceAlpha" type="matrix" values="0 0 0 0 0 0 0 0 0 0 0 0 0 0 0 0 0 0 127 0" result="hardAlpha"/>
<feOffset dx="-4.68966" dy="7.03448"/>
<feGaussianBlur stdDeviation="2.34483"/>
<feComposite in2="hardAlpha" operator="out"/>
<feColorMatrix type="matrix" values="0 0 0 0 0 0 0 0 0 0 0 0 0 0 0 0 0 0 0.06 0"/>
<feBlend mode="normal" in2="BackgroundImageFix" result="effect1_dropShadow_16_17195"/>
<feBlend mode="normal" in="SourceGraphic" in2="effect1_dropShadow_16_17195" result="shape"/>
</filter>
<linearGradient id="paint0_linear_16_17195" x1="22.1652" y1="10.667" x2="22.1652" y2="32.3337" gradientUnits="userSpaceOnUse">
<stop stop-color="white"/>
<stop offset="1" stop-color="white" stop-opacity="0"/>
</linearGradient>
<clipPath id="clip0_16_17195">
<rect x="2.16602" y="1.5" width="40" height="40" rx="20" fill="white"/>
</clipPath>
</defs>
</svg>
