<svg width="24" height="25" viewBox="0 0 24 25" fill="none" xmlns="http://www.w3.org/2000/svg">
<path fill-rule="evenodd" clip-rule="evenodd" d="M5.50711 5.60086C4.47511 6.63285 4 8.4866 4 12.0938C4 15.7009 4.47511 17.5547 5.50711 18.5866C6.5391 19.6186 8.39285 20.0938 12 20.0938C15.6071 20.0938 17.4609 19.6186 18.4929 18.5866C19.5249 17.5547 20 15.7009 20 12.0938C20 8.4866 19.5249 6.63285 18.4929 5.60086C17.4609 4.56886 15.6071 4.09375 12 4.09375C8.39285 4.09375 6.5391 4.56886 5.50711 5.60086ZM4.09289 4.18664C5.7609 2.51864 8.40715 2.09375 12 2.09375C15.5929 2.09375 18.2391 2.51864 19.9071 4.18664C21.5751 5.85465 22 8.5009 22 12.0938C22 15.6866 21.5751 18.3328 19.9071 20.0009C18.2391 21.6689 15.5929 22.0938 12 22.0938C8.40715 22.0938 5.7609 21.6689 4.09289 20.0009C2.42489 18.3328 2 15.6866 2 12.0938C2 8.5009 2.42489 5.85465 4.09289 4.18664ZM8.29289 10.3866C8.68342 9.99612 9.31658 9.99612 9.70711 10.3866L12 12.6795L14.2929 10.3866C14.6834 9.99612 15.3166 9.99612 15.7071 10.3866C16.0976 10.7772 16.0976 11.4103 15.7071 11.8009L12.7071 14.8009C12.3166 15.1914 11.6834 15.1914 11.2929 14.8009L8.29289 11.8009C7.90237 11.4103 7.90237 10.7772 8.29289 10.3866Z" fill="#212529"/>
<path fill-rule="evenodd" clip-rule="evenodd" d="M5.50711 5.60086C4.47511 6.63285 4 8.4866 4 12.0938C4 15.7009 4.47511 17.5547 5.50711 18.5866C6.5391 19.6186 8.39285 20.0938 12 20.0938C15.6071 20.0938 17.4609 19.6186 18.4929 18.5866C19.5249 17.5547 20 15.7009 20 12.0938C20 8.4866 19.5249 6.63285 18.4929 5.60086C17.4609 4.56886 15.6071 4.09375 12 4.09375C8.39285 4.09375 6.5391 4.56886 5.50711 5.60086ZM4.09289 4.18664C5.7609 2.51864 8.40715 2.09375 12 2.09375C15.5929 2.09375 18.2391 2.51864 19.9071 4.18664C21.5751 5.85465 22 8.5009 22 12.0938C22 15.6866 21.5751 18.3328 19.9071 20.0009C18.2391 21.6689 15.5929 22.0938 12 22.0938C8.40715 22.0938 5.7609 21.6689 4.09289 20.0009C2.42489 18.3328 2 15.6866 2 12.0938C2 8.5009 2.42489 5.85465 4.09289 4.18664ZM8.29289 10.3866C8.68342 9.99612 9.31658 9.99612 9.70711 10.3866L12 12.6795L14.2929 10.3866C14.6834 9.99612 15.3166 9.99612 15.7071 10.3866C16.0976 10.7772 16.0976 11.4103 15.7071 11.8009L12.7071 14.8009C12.3166 15.1914 11.6834 15.1914 11.2929 14.8009L8.29289 11.8009C7.90237 11.4103 7.90237 10.7772 8.29289 10.3866Z" fill="black" fill-opacity="0.2"/>
</svg>
