<svg width="92" height="93" viewBox="0 0 92 93" fill="none" xmlns="http://www.w3.org/2000/svg">
<path d="M72.8333 12H19.1667C14.9325 12 11.5 15.4325 11.5 19.6667V73.3333C11.5 77.5675 14.9325 81 19.1667 81H72.8333C77.0675 81 80.5 77.5675 80.5 73.3333V19.6667C80.5 15.4325 77.0675 12 72.8333 12Z" stroke="white" stroke-width="3" stroke-linecap="round" stroke-linejoin="round"/>
<path d="M32.5833 38.8334C35.7589 38.8334 38.3333 36.259 38.3333 33.0834C38.3333 29.9077 35.7589 27.3334 32.5833 27.3334C29.4076 27.3334 26.8333 29.9077 26.8333 33.0834C26.8333 36.259 29.4076 38.8334 32.5833 38.8334Z" stroke="white" stroke-width="3" stroke-linecap="round" stroke-linejoin="round"/>
<path d="M80.5001 58L61.3334 38.8334L19.1667 81" stroke="white" stroke-width="3" stroke-linecap="round" stroke-linejoin="round"/>
</svg>
