<svg width="112" height="32" viewBox="0 0 112 32" fill="none" xmlns="http://www.w3.org/2000/svg">
<path d="M32.4642 19.3876C32.2266 20.3885 31.8809 21.3534 31.4273 22.275C30.1744 24.7736 27.9855 26.6817 25.7317 28.3378C24.9468 28.9355 24.1188 29.4611 23.2403 29.9147C21.3682 30.8292 19.2513 31.1748 17.1631 31.2396C12.7348 31.4053 8.06168 30.4332 4.72065 27.4954C3.73418 26.6097 2.87733 25.5872 2.17888 24.464C-0.780527 19.5388 -0.722923 13.3608 2.33729 8.49327C5.10228 4.27377 9.84021 1.6816 14.7365 0.536716C15.939 0.241496 17.1703 0.061483 18.416 0.00387897C23.0531 -0.104129 27.4454 2.04882 30.196 5.78588C32.961 9.63815 33.609 14.7865 32.457 19.3948M25.1557 2.80487C23.5068 1.86161 21.577 1.48718 19.6761 1.37917C15.5862 1.14876 11.3811 2.14963 7.99688 4.44659C4.61265 6.74355 2.07087 10.3798 1.38682 14.4193C0.702775 18.4588 1.96286 22.8439 4.89346 25.7025C6.8664 27.625 9.45138 28.7987 12.1948 29.0291C13.0444 29.1011 13.9877 29.1155 14.5925 29.7203C14.9454 30.0012 15.3918 30.1452 15.8454 30.1308C21.8074 30.4764 27.8126 26.9049 30.34 21.4902C32.8602 16.0754 31.7441 9.17731 27.6398 4.83541C26.9198 4.04336 26.0845 3.36651 25.1629 2.81207L25.1557 2.80487Z" fill="black"/>
<path d="M8.91135 22.1454C8.91135 22.5414 8.77454 22.923 8.52972 23.2254C8.32091 23.5855 8.03289 23.8951 7.69447 24.1327C7.34884 24.3703 6.90241 24.4207 6.51358 24.2623C6.15356 24.0751 5.91594 23.7079 5.88714 23.3046C5.86554 22.9014 5.96635 22.5054 6.18236 22.167C6.47038 21.6197 6.99602 21.2453 7.60086 21.1517C8.2273 21.0869 8.80334 21.5189 8.91135 22.1454ZM6.98882 22.5342C6.83761 22.8006 6.7872 23.2254 7.07522 23.3406C7.21203 23.3766 7.36324 23.3478 7.48565 23.2686C7.71607 23.1534 7.88888 22.9446 7.95368 22.6926C8.00409 22.4334 7.83848 22.1742 7.57926 22.1166C7.32004 22.1382 7.09682 22.2966 6.98882 22.5342Z" fill="black"/>
<path d="M19.2801 25.3857C19.6761 25.2705 20.0937 25.2921 20.4754 25.4577C20.749 25.5081 20.9938 25.6521 21.1666 25.8753C21.3034 26.1922 21.2458 26.5666 21.0082 26.8258C20.7778 27.0778 20.5618 27.337 20.3673 27.6107C20.2017 27.8483 19.8993 27.9419 19.6329 27.8483C19.3737 27.7475 19.1505 27.5603 19.0065 27.3154C18.7904 27.013 18.6824 26.6458 18.6968 26.2786C18.7112 25.8969 18.9344 25.5513 19.2801 25.3857ZM20.2305 26.509C20.2089 26.365 20.0721 26.2714 19.9281 26.293C19.8561 26.3074 19.7913 26.3434 19.7553 26.4082C19.8057 26.509 19.8849 26.5954 19.9857 26.6458C20.0793 26.6818 20.1801 26.6458 20.2233 26.5522C20.2233 26.5378 20.2305 26.5234 20.2377 26.5018L20.2305 26.509Z" fill="black"/>
<path d="M27.683 16.2626C27.3806 16.0394 27.2077 15.6794 27.2294 15.2978C27.3662 14.6281 27.9782 14.1529 28.6623 14.1961C29.3463 14.2897 29.8431 14.8945 29.7927 15.5786C29.6847 16.2554 29.0439 16.7235 28.367 16.6155C28.1078 16.5506 27.8702 16.421 27.6758 16.241M28.8783 15.4922C28.8999 15.269 28.7415 15.0745 28.5182 15.0529C28.295 15.0313 28.1006 15.1898 28.079 15.413C28.0646 15.557 28.1294 15.6938 28.2446 15.7802C28.4462 15.9026 28.7055 15.8378 28.8279 15.6434C28.8495 15.6074 28.8711 15.557 28.8783 15.5138V15.4922Z" fill="black"/>
<path d="M26.6318 21.987C26.2142 22.815 25.6886 23.7151 24.8101 23.9887C23.4276 24.4423 22.1243 23.2471 21.1018 22.2174C19.8778 20.9789 18.5529 19.8412 17.1488 18.8115C17.732 20.7629 18.3153 22.8366 17.84 24.8168C17.7176 25.5224 17.3144 26.1489 16.7239 26.5449C16.3495 26.7249 15.9391 26.8329 15.5215 26.8617C14.571 27.0417 13.5917 27.0561 12.6341 26.9049C11.6836 26.6817 10.7619 26.0697 10.4739 25.148C10.1067 23.9815 10.8195 22.7718 11.4748 21.7493L14.5854 16.961L9.82587 18.7395C8.9402 19.114 8.01134 19.366 7.06087 19.4956C6.10321 19.618 5.13114 19.3588 4.36069 18.7755C3.48943 18.0339 3.16541 16.8242 3.1438 15.6649C3.1078 13.872 3.86385 11.9063 5.49837 11.1718C7.13288 10.4374 8.97621 11.1574 10.6035 11.8631L13.2677 13.0007C12.4324 11.8775 11.6836 10.6894 11.0355 9.4509C10.4091 8.25562 9.88347 6.75071 10.6107 5.61304C11.9428 3.5969 14.3334 2.55282 16.7167 2.94165C17.3432 3.02806 17.9264 3.29448 18.4017 3.7049C19.4385 4.70577 19.2585 6.38349 18.9921 7.80199L18.2504 11.7767L21.8651 6.5275C22.4123 5.73544 23.0964 4.85698 24.0684 4.82098C24.9469 4.79218 25.6742 5.51223 26.1638 6.23228C27.3735 8.0324 27.8631 10.2142 27.5463 12.3527C27.4023 13.26 27.0711 14.2104 26.3222 14.7361C25.7246 15.1537 24.9685 15.2329 24.2485 15.3049L21.7931 15.5425C23.4132 16.2914 25.595 15.7081 26.8622 16.9754C27.4671 17.6595 27.7335 18.5811 27.5751 19.4812C27.4167 20.3669 27.1071 21.2237 26.6678 22.0086M16.6375 14.5345L18.2576 6.5851C18.4017 5.55543 17.8616 4.54736 16.9184 4.10093C15.9751 3.6905 14.9094 3.7049 13.9806 4.15134C13.0661 4.59777 12.2668 5.23861 11.626 6.03067C11.1364 6.5923 11.3812 7.46356 11.698 8.14041C12.8501 10.6102 14.535 12.7919 16.6375 14.5201M24.7453 6.29708C24.5725 6.03787 24.2701 5.88666 23.9604 5.91546C23.802 5.97306 23.658 6.08107 23.5572 6.21788C21.2387 8.80286 19.5825 11.8919 17.948 14.9377C17.8832 15.0241 17.8616 15.1393 17.9048 15.2401C17.9984 15.3265 18.1352 15.3481 18.2504 15.2977C20.4826 14.7433 22.758 14.3904 25.0549 14.2464C25.6526 14.2104 26.0198 13.5768 26.1998 13.0079C26.9126 10.675 26.3654 8.13321 24.7453 6.29708ZM4.27428 16.3922C4.33909 16.8386 4.5191 17.2634 4.79992 17.6163C5.57757 18.5163 6.99607 18.3579 8.15535 18.0627C10.5819 17.4435 12.9437 16.5866 15.2046 15.5065C14.4774 14.8153 13.5269 14.3904 12.6053 13.98L8.70259 12.2807C8.28496 12.0719 7.83133 11.9279 7.3705 11.8487C6.28322 11.7767 5.24635 12.3383 4.70631 13.2816C4.18788 14.232 4.03667 15.3409 4.28148 16.3922M24.3061 17.1122C21.9515 16.5794 19.4673 16.1546 17.156 16.7954C19.1793 18.898 21.3035 20.8925 23.5284 22.7718C23.9676 23.0742 24.5509 23.0526 24.9613 22.7142C25.3501 22.3758 25.6454 21.9366 25.811 21.4397C26.0414 20.8925 26.2286 20.3237 26.3726 19.7476C26.5094 19.33 26.531 18.8908 26.4302 18.4587C26.1638 17.6163 25.1701 17.2922 24.3061 17.0978M16.7311 24.4279C17.2568 22.1526 16.0399 19.8484 15.9175 17.5155C15.9031 17.4003 15.7951 17.321 15.6799 17.3426C15.6655 17.3426 15.6511 17.3426 15.6367 17.357C15.5215 17.4075 15.4279 17.4939 15.3702 17.6091C14.2686 19.1716 13.2173 20.7629 12.1948 22.3758C11.878 22.815 11.6476 23.3047 11.5036 23.8303C11.3668 24.3631 11.5036 24.9248 11.8708 25.328C12.4756 25.904 13.4405 25.7024 14.2758 25.76C14.823 25.796 15.4062 25.94 15.8959 25.7024C16.3423 25.4216 16.6447 24.9608 16.7239 24.4351L16.7311 24.4279Z" fill="black"/>
<path d="M7.41357 9.4294C7.23356 9.4942 7.04634 9.52301 6.85193 9.5014C6.4127 9.4006 6.11748 8.98297 6.16068 8.53654C6.22549 8.09731 6.51351 7.71568 6.91673 7.53567C7.45677 7.27645 8.24883 7.42766 8.44324 8.0037C8.63765 8.57974 8.03281 9.22779 7.40637 9.4366M7.59358 8.60854C7.67279 8.55094 7.73039 8.46453 7.74479 8.37093C7.68719 8.29172 7.59358 8.24132 7.49998 8.22692C7.42077 8.28452 7.37037 8.37813 7.35597 8.47173C7.41357 8.55094 7.49997 8.60134 7.60078 8.61574L7.59358 8.60854Z" fill="black"/>
<path d="M20.4681 4.71291C20.2377 4.39609 20.2089 3.97846 20.3889 3.63284C20.4753 3.42402 20.6266 3.25121 20.821 3.1288C21.2962 2.89839 21.865 3.0928 22.0955 3.56803C22.1099 3.59683 22.1243 3.62564 22.1315 3.65444C22.2827 4.19448 21.9947 4.75611 21.469 4.95053C21.1162 5.08014 20.7202 4.99373 20.4609 4.71291H20.4681Z" fill="black"/>
<path d="M53.7129 4.62866H57.3617V26.3394H53.7129V17.0675H43.6487V26.3394H40V4.62866H43.6487V13.8549H53.7129V4.62866ZM66.5286 26.6287C64.0505 26.6287 61.8158 25.4411 61.8158 22.4571C61.8158 19.1838 64.4763 18.1637 67.6689 17.5852L69.9798 17.1589C70.9832 16.961 71.3936 16.5042 71.3936 15.7734C71.3936 13.8856 69.919 13.2614 68.3987 13.2614C66.7416 13.2614 65.3886 13.9922 65.1605 15.9562L62.0135 15.3776C62.5456 12.2108 64.826 10.7492 68.6115 10.7492C71.6673 10.7492 74.7534 11.8454 74.7534 16.154V22.0916C74.7534 23.538 75.1335 23.949 76.1977 23.949H76.4409V26.3393H74.7838C73.0659 26.3393 72.032 25.7303 71.6824 24.3145H71.5152C70.3293 25.9892 68.3681 26.6287 66.5286 26.6287ZM67.3495 23.873C69.7516 23.873 71.6214 22.0917 71.6214 19.2903L67.7142 20.1581C66.1027 20.4626 65.2058 21.0107 65.2058 22.1679C65.2058 23.3706 66.1484 23.873 67.3495 23.873ZM87.9644 10.7337C91.3851 10.7337 93.4679 12.6215 93.4679 16.0319V26.3389H89.9409V16.7931C89.9409 14.4789 88.5422 13.5959 86.9307 13.5959C85 13.5959 83.3429 14.6921 83.3276 17.5391V26.3389H79.831V11.0229H83.3276V12.8346C84.3462 11.5101 85.9729 10.7337 87.9644 10.7337ZM104.748 26.6134C100.157 26.6134 96.8276 23.4466 96.8276 18.6661C96.8276 13.9008 100.157 10.734 104.748 10.734C108.382 10.734 111.164 12.6675 112 16.0778L108.747 16.5041C108.154 14.5554 106.649 13.5506 104.718 13.5506C102.164 13.5506 100.324 15.5754 100.324 18.6661C100.324 21.7569 102.164 23.7817 104.718 23.7817C106.649 23.7817 108.154 22.7921 108.747 20.8433L112 21.2544C111.164 24.6647 108.321 26.6134 104.748 26.6134Z" fill="#111111"/>
</svg>
