<svg width="26" height="30" viewBox="0 0 26 30" fill="none" xmlns="http://www.w3.org/2000/svg">
<path fill-rule="evenodd" clip-rule="evenodd" d="M19.7294 28.8589L13.2664 25.2339C12.781 25.0197 12.2279 25.0197 11.7424 25.2339L5.27845 28.8589C4.18357 29.5889 2.77822 29.6655 1.61045 29.0588C0.521156 28.3134 -0.0885353 27.0441 0.0104485 25.7279V6.87988C-0.000579792 3.4928 2.73065 0.735291 6.11757 0.713867H18.8954C22.2821 0.73584 25.013 3.4931 25.0024 6.87988V25.7289C25.1015 27.0451 24.4918 28.3145 23.4025 29.0599C22.9381 29.336 22.4067 29.4792 21.8664 29.4738C21.1126 29.4594 20.3757 29.2474 19.7294 28.8589ZM14.2194 23.4809L20.6834 27.1059C21.1706 27.4755 21.8163 27.5618 22.3834 27.3329C22.8481 26.9391 23.0822 26.3371 23.0054 25.7329L23.0054 6.87988C23.0094 4.59723 21.1702 2.7392 18.8875 2.71997L6.11444 2.71991C3.83137 2.73865 1.99154 4.5968 1.99545 6.87994L1.99545 25.7289C1.8063 26.3411 2.06111 27.0031 2.61188 27.3306C3.16265 27.658 3.86601 27.5655 4.31345 27.1069L10.7774 23.4819C11.8585 22.9288 13.1394 22.9288 14.2204 23.4819L14.2194 23.4809ZM8.51044 12.0809C7.99004 11.8908 7.72218 11.3149 7.9121 10.7945C8.10203 10.274 8.67785 10.006 9.19835 10.1958C11.3334 10.9717 13.6734 10.9717 15.8084 10.1959C16.0565 10.1055 16.3303 10.1181 16.5691 10.2308C16.8078 10.3434 16.9915 10.5469 17.0794 10.7958C17.1708 11.0457 17.1588 11.3215 17.0462 11.5625C16.9336 11.8035 16.7296 11.9896 16.4795 12.0798C13.9059 13.0253 11.08 13.0253 8.50645 12.0798L8.51044 12.0809Z" fill="#2F2F2F"/>
</svg>
