<svg width="24" height="25" viewBox="0 0 24 25" fill="none" xmlns="http://www.w3.org/2000/svg">
<path fill-rule="evenodd" clip-rule="evenodd" d="M14 3.77075C14 3.21847 14.4477 2.77075 15 2.77075C16.8565 2.77075 18.637 3.50825 19.9497 4.821C21.2625 6.13376 22 7.91424 22 9.77075C22 10.323 21.5523 10.7708 21 10.7708C20.4477 10.7708 20 10.323 20 9.77075C20 8.44467 19.4732 7.1729 18.5355 6.23522C17.5979 5.29754 16.3261 4.77075 15 4.77075C14.4477 4.77075 14 4.32304 14 3.77075ZM5 5.77075C4.73478 5.77075 4.48043 5.87611 4.29289 6.06365C4.11141 6.24513 4.00688 6.48919 4.00033 6.74512C4.23032 10.3891 5.78159 13.8245 8.36394 16.4068C10.9463 18.9892 14.3817 20.5404 18.0256 20.7704C18.2816 20.7639 18.5256 20.6593 18.7071 20.4779C18.8946 20.2903 19 20.036 19 19.7708V16.4478L15.4193 15.0155L14.3575 16.7852C14.0897 17.2315 13.5244 17.3978 13.0577 17.1676C10.6887 15.9993 8.77146 14.082 7.60314 11.7131C7.37294 11.2463 7.53924 10.681 7.9855 10.4133L9.75523 9.35142L8.32297 5.77075H5ZM2.87868 4.64943C3.44129 4.08682 4.20435 3.77075 5 3.77075H9C9.4089 3.77075 9.77661 4.0197 9.92848 4.39936L11.9285 9.39936C12.1108 9.85508 11.9354 10.3757 11.5145 10.6282L9.8405 11.6326C10.6644 12.9763 11.7945 14.1064 13.1381 14.9303L14.1425 13.2563C14.395 12.8354 14.9157 12.66 15.3714 12.8423L20.3714 14.8423C20.751 14.9941 21 15.3618 21 15.7708V19.7708C21 20.5664 20.6839 21.3295 20.1213 21.8921C19.5587 22.4547 18.7957 22.7708 18 22.7708C17.9798 22.7708 17.9595 22.7701 17.9393 22.7689C13.7948 22.517 9.88576 20.7571 6.94972 17.821C4.01369 14.885 2.25371 10.9759 2.00184 6.83141C2.00061 6.81121 2 6.79099 2 6.77075C2 5.9751 2.31607 5.21204 2.87868 4.64943ZM14 7.77075C14 7.21847 14.4477 6.77075 15 6.77075C15.7956 6.77075 16.5587 7.08682 17.1213 7.64943C17.6839 8.21204 18 8.9751 18 9.77075C18 10.323 17.5523 10.7708 17 10.7708C16.4477 10.7708 16 10.323 16 9.77075C16 9.50554 15.8946 9.25118 15.7071 9.06364C15.5196 8.87611 15.2652 8.77075 15 8.77075C14.4477 8.77075 14 8.32304 14 7.77075Z" fill="#212529"/>
<path fill-rule="evenodd" clip-rule="evenodd" d="M14 3.77075C14 3.21847 14.4477 2.77075 15 2.77075C16.8565 2.77075 18.637 3.50825 19.9497 4.821C21.2625 6.13376 22 7.91424 22 9.77075C22 10.323 21.5523 10.7708 21 10.7708C20.4477 10.7708 20 10.323 20 9.77075C20 8.44467 19.4732 7.1729 18.5355 6.23522C17.5979 5.29754 16.3261 4.77075 15 4.77075C14.4477 4.77075 14 4.32304 14 3.77075ZM5 5.77075C4.73478 5.77075 4.48043 5.87611 4.29289 6.06365C4.11141 6.24513 4.00688 6.48919 4.00033 6.74512C4.23032 10.3891 5.78159 13.8245 8.36394 16.4068C10.9463 18.9892 14.3817 20.5404 18.0256 20.7704C18.2816 20.7639 18.5256 20.6593 18.7071 20.4779C18.8946 20.2903 19 20.036 19 19.7708V16.4478L15.4193 15.0155L14.3575 16.7852C14.0897 17.2315 13.5244 17.3978 13.0577 17.1676C10.6887 15.9993 8.77146 14.082 7.60314 11.7131C7.37294 11.2463 7.53924 10.681 7.9855 10.4133L9.75523 9.35142L8.32297 5.77075H5ZM2.87868 4.64943C3.44129 4.08682 4.20435 3.77075 5 3.77075H9C9.4089 3.77075 9.77661 4.0197 9.92848 4.39936L11.9285 9.39936C12.1108 9.85508 11.9354 10.3757 11.5145 10.6282L9.8405 11.6326C10.6644 12.9763 11.7945 14.1064 13.1381 14.9303L14.1425 13.2563C14.395 12.8354 14.9157 12.66 15.3714 12.8423L20.3714 14.8423C20.751 14.9941 21 15.3618 21 15.7708V19.7708C21 20.5664 20.6839 21.3295 20.1213 21.8921C19.5587 22.4547 18.7957 22.7708 18 22.7708C17.9798 22.7708 17.9595 22.7701 17.9393 22.7689C13.7948 22.517 9.88576 20.7571 6.94972 17.821C4.01369 14.885 2.25371 10.9759 2.00184 6.83141C2.00061 6.81121 2 6.79099 2 6.77075C2 5.9751 2.31607 5.21204 2.87868 4.64943ZM14 7.77075C14 7.21847 14.4477 6.77075 15 6.77075C15.7956 6.77075 16.5587 7.08682 17.1213 7.64943C17.6839 8.21204 18 8.9751 18 9.77075C18 10.323 17.5523 10.7708 17 10.7708C16.4477 10.7708 16 10.323 16 9.77075C16 9.50554 15.8946 9.25118 15.7071 9.06364C15.5196 8.87611 15.2652 8.77075 15 8.77075C14.4477 8.77075 14 8.32304 14 7.77075Z" fill="black" fill-opacity="0.2"/>
</svg>
