<svg width="26" height="29" viewBox="0 0 26 29" fill="none" xmlns="http://www.w3.org/2000/svg">
<path fill-rule="evenodd" clip-rule="evenodd" d="M10.408 28.0861L2.572 23.5661C0.985058 22.6435 0.00617981 20.9487 0 19.1131V10.1011C0.00624466 8.26517 0.985065 6.57013 2.57202 5.64707L10.408 1.12809C11.9986 0.205677 13.9614 0.205677 15.552 1.12809L23.388 5.64708C24.9749 6.57016 25.9538 8.2652 25.96 10.1011L25.96 19.1131C25.9538 20.9486 24.975 22.6434 23.3881 23.566L15.552 28.0861C13.9589 28.999 12.0011 28.999 10.408 28.0861ZM11.397 2.84108L3.561 7.36008C2.58274 7.92653 1.97974 8.97066 1.978 10.1011V19.1131C1.98256 20.2427 2.58479 21.2855 3.56093 21.854L11.397 26.3731C12.3762 26.9401 13.5838 26.9401 14.563 26.3731L22.399 21.8541C23.3773 21.2878 23.9801 20.2435 23.981 19.1131V10.1011C23.9764 8.97174 23.3747 7.92907 22.3991 7.36011L14.563 2.84108C13.5823 2.27962 12.3777 2.27962 11.397 2.84108H11.397ZM8.037 17.9271C7.67973 17.9271 7.34961 17.7365 7.17097 17.4271C6.99234 17.1177 6.99234 16.7365 7.17097 16.4271C7.34961 16.1177 7.67973 15.9271 8.037 15.9271H18.037C18.3943 15.9271 18.7244 16.1177 18.903 16.4271C19.0817 16.7365 19.0817 17.1177 18.903 17.4271C18.7244 17.7365 18.3943 17.9271 18.037 17.9271H8.037ZM8.037 12.9271C7.67973 12.9271 7.34961 12.7365 7.17097 12.4271C6.99234 12.1177 6.99234 11.7365 7.17097 11.4271C7.34961 11.1177 7.67973 10.9271 8.037 10.9271H18.037C18.3943 10.9271 18.7244 11.1177 18.903 11.4271C19.0817 11.7365 19.0817 12.1177 18.903 12.4271C18.7244 12.7365 18.3943 12.9271 18.037 12.9271H8.037Z" fill="white"/>
</svg>
