<svg width="29" height="30" viewBox="0 0 29 30" fill="none" xmlns="http://www.w3.org/2000/svg">
<path fill-rule="evenodd" clip-rule="evenodd" d="M10.418 29.7138C3.118 29.7138 0 26.5908 0 19.2808V11.2038C0 3.89377 3.118 0.770752 10.418 0.770752H18.484C25.784 0.770752 28.902 3.89374 28.902 11.2038V19.2808C28.902 26.5908 25.784 29.7138 18.484 29.7138H10.418ZM2.018 11.2038V19.2808C2.018 25.4868 4.218 27.6948 10.418 27.6948H18.484C24.684 27.6948 26.884 25.4868 26.884 19.2808V11.2038C26.884 4.99777 24.679 2.78976 18.484 2.78976H10.418C4.22 2.79279 2.016 4.99979 2.016 11.2068L2.018 11.2038ZM16.992 23.5248H6.816C6.26017 23.5204 5.81081 23.0706 5.807 22.5148L5.807 15.6228C5.8097 14.2199 6.94506 13.0827 8.34793 13.0777L10.888 13.0778V9.51376C10.8908 8.11096 12.0264 6.97412 13.4291 6.96976H15.472C16.8747 6.97415 18.0103 8.11105 18.013 9.51376V15.3828H20.555C21.9579 15.3871 23.0937 16.5239 23.097 17.9268V22.5138C23.0975 22.7816 22.9914 23.0387 22.8021 23.2282C22.6128 23.4177 22.3559 23.524 22.088 23.5238L16.992 23.5248ZM21.079 21.5048V17.9238C21.079 17.6339 20.8439 17.3988 20.554 17.3988H18.013V21.5048H21.079ZM15.984 21.5048V16.3888C15.9841 16.3379 15.9881 16.287 15.996 16.2368V9.51376C15.9965 9.22379 15.7619 8.98831 15.472 8.98776H13.432C13.142 8.98831 12.9074 9.22382 12.908 9.51376V13.9218C12.9174 13.9773 12.9221 14.0335 12.922 14.0898V21.5078L15.984 21.5048ZM7.82399 15.6348V21.5048H10.888V15.1138H8.34799C8.0596 15.1143 7.82564 15.3474 7.824 15.6358L7.82399 15.6348Z" fill="#2F2F2F"/>
</svg>
