<svg width="29" height="28" viewBox="0 0 29 28" fill="none" xmlns="http://www.w3.org/2000/svg">
<path fill-rule="evenodd" clip-rule="evenodd" d="M8.518 27.1177L6.208 25.8017C5.39151 25.342 4.79284 24.5748 4.54544 23.6711C4.29804 22.7673 4.42247 21.8022 4.891 20.9908C5.26126 20.5152 5.36273 19.8834 5.16 19.3157C4.76394 18.8552 4.16227 18.6254 3.56 18.7048C1.60529 18.712 0.013176 17.1363 0 15.1817V12.8427C0.0137787 10.8885 1.60572 9.31353 3.56001 9.32073C4.16245 9.39983 4.76415 9.16973 5.16 8.70873C5.36964 8.14178 5.26761 7.50646 4.891 7.03368C4.42334 6.22545 4.29805 5.26385 4.543 4.36278C4.78084 3.45116 5.38286 2.67736 6.208 2.22271L8.532 0.906729C10.0778 0.0220245 12.0473 0.535696 12.964 2.06273L13.125 2.32873C13.918 3.68474 15.005 3.68474 15.798 2.32873L15.946 2.07671C16.859 0.535757 18.844 0.0196441 20.392 0.920706L22.702 2.23669C23.5189 2.69604 24.1179 3.46325 24.3654 4.36712C24.6128 5.27105 24.4881 6.23638 24.019 7.04772C23.649 7.52337 23.5475 8.15502 23.75 8.72265C24.1461 9.18328 24.7477 9.41308 25.35 9.33367C27.3045 9.32708 28.8962 10.9023 28.91 12.8567V15.1957C28.8962 17.1501 27.3045 18.7253 25.35 18.7186C24.7477 18.6393 24.146 18.8691 23.75 19.3297C23.5404 19.8967 23.6424 20.532 24.019 21.0048C24.488 21.8161 24.6128 22.7814 24.3653 23.6853C24.1179 24.5892 23.5189 25.3564 22.702 25.8157L20.378 27.1316C19.881 27.4085 19.3219 27.555 18.753 27.5577C18.4679 27.5547 18.184 27.5192 17.907 27.4516C17.0827 27.2333 16.3749 26.7043 15.932 25.9756L15.771 25.7096C14.979 24.3547 13.891 24.3547 13.098 25.7096L12.95 25.9626C12.5161 26.702 11.8053 27.2379 10.975 27.4517C10.7001 27.5256 10.4167 27.5633 10.132 27.5637C9.5636 27.5634 9.00588 27.4093 8.518 27.1177H8.518ZM9.539 2.61767L7.218 3.95067C6.86253 4.1527 6.60177 4.48754 6.493 4.8817C6.38531 5.27129 6.43864 5.6878 6.64101 6.03771C7.39168 7.12035 7.49434 8.5255 6.909 9.70574C6.16562 10.8053 4.88801 11.4196 3.565 11.3138C3.15699 11.3095 2.76423 11.4686 2.4742 11.7556C2.18418 12.0426 2.02099 12.4336 2.021 12.8417V15.1807C2.02541 16.0292 2.71651 16.7136 3.56499 16.7097C4.88796 16.604 6.16547 17.2183 6.90901 18.3176C7.49437 19.4979 7.3917 20.9031 6.641 21.9857C6.43864 22.3356 6.38531 22.7521 6.49301 23.1417C6.60025 23.5325 6.85568 23.8661 7.20501 24.0716L9.52901 25.3887C9.80738 25.5564 10.1419 25.6041 10.456 25.5207C10.7758 25.4371 11.0506 25.2324 11.222 24.9498L11.37 24.6977C11.8832 23.4515 13.0977 22.6381 14.4455 22.6381C15.7933 22.6381 17.0078 23.4515 17.521 24.6978L17.669 24.9498C17.8329 25.2308 18.1046 25.4328 18.421 25.5088C18.7295 25.5912 19.0582 25.548 19.335 25.3888L21.659 24.0598C22.0145 23.8578 22.2752 23.5229 22.384 23.1288C22.4914 22.7391 22.438 22.3227 22.236 21.9728C21.4848 20.8904 21.3817 19.4852 21.967 18.3048C22.7104 17.2053 23.988 16.5909 25.311 16.6968C25.7191 16.701 26.112 16.542 26.4022 16.2549C26.6924 15.9679 26.8558 15.5769 26.856 15.1688V12.8287C26.851 11.9802 26.1595 11.2962 25.311 11.3006C23.988 11.4063 22.7105 10.792 21.967 9.69274C21.3817 8.51238 21.4848 7.10711 22.236 6.02477C22.4381 5.6748 22.4914 5.25835 22.384 4.86877C22.2766 4.47765 22.0213 4.14373 21.672 3.93761L19.348 2.62169C18.7587 2.27965 18.0039 2.47539 17.655 3.06072L17.507 3.31273C16.9942 4.55962 15.7793 5.37359 14.431 5.37359C13.0827 5.37359 11.8678 4.55962 11.355 3.31273L11.207 3.04674C10.981 2.6798 10.58 2.45727 10.149 2.45977C9.93464 2.45898 9.72386 2.51482 9.538 2.62163L9.539 2.61767ZM9.405 14.0087C9.38351 11.9667 10.597 10.1138 12.4774 9.3175C14.3578 8.52111 16.5329 8.93889 17.9845 10.3752C19.4361 11.8115 19.8769 13.982 19.1005 15.8708C18.324 17.7595 16.4841 18.9925 14.442 18.9927C11.6765 19.0066 9.42215 16.7782 9.404 14.0127L9.405 14.0087ZM11.42 14.0087C11.4074 15.2337 12.1357 16.3451 13.2639 16.8226C14.3921 17.3002 15.6969 17.0493 16.5677 16.1876C17.4384 15.3257 17.7027 14.0236 17.2368 12.8905C16.771 11.7574 15.6671 11.0178 14.442 11.0177C12.7803 11.0104 11.4269 12.3508 11.418 14.0126L11.42 14.0087Z" fill="#2F2F2F"/>
</svg>
