<svg width="32" height="29" viewBox="0 0 32 29" fill="none" xmlns="http://www.w3.org/2000/svg">
<path d="M19.8396 11.6028C21.3422 11.6028 22.5618 12.8223 22.5618 14.325V21.7123C22.5618 23.5692 21.8241 25.3501 20.5111 26.6632C19.198 27.9762 17.4171 28.7139 15.5602 28.7139C13.7033 28.7139 11.9224 27.9762 10.6094 26.6632C9.29633 25.3501 8.55867 23.5692 8.55867 21.7123V14.325C8.55867 12.8223 9.77666 11.6028 11.2809 11.6028H19.8396ZM19.8396 13.9361H11.2809C11.1777 13.9361 11.0788 13.9771 11.0059 14.05C10.933 14.1229 10.892 14.2218 10.892 14.325V21.7123C10.892 22.9504 11.3838 24.1378 12.2593 25.0132C13.1348 25.8887 14.3221 26.3805 15.5602 26.3805C16.7983 26.3805 17.9857 25.8887 18.8612 25.0132C19.7366 24.1378 20.2284 22.9504 20.2284 21.7123V14.325C20.2284 14.2218 20.1875 14.1229 20.1145 14.05C20.0416 13.9771 19.9427 13.9361 19.8396 13.9361ZM2.72222 11.6028H7.98155C7.43292 12.2657 7.09778 13.0791 7.02022 13.9361H2.72222C2.61908 13.9361 2.52017 13.9771 2.44724 14.05C2.37431 14.1229 2.33333 14.2218 2.33333 14.325V19.379C2.33294 19.9669 2.46584 20.5472 2.72206 21.0764C2.97828 21.6055 3.35113 22.0697 3.81259 22.434C4.27405 22.7983 4.81209 23.0532 5.38627 23.1796C5.96044 23.306 6.55579 23.3005 7.12755 23.1636C7.25978 23.9476 7.50089 24.6959 7.83222 25.3912C7.31785 25.5312 6.78118 25.6017 6.22222 25.6028C5.40498 25.6028 4.59574 25.4418 3.84072 25.129C3.08571 24.8162 2.3997 24.3577 1.8219 23.7798C1.24409 23.2018 0.785797 22.5157 0.473192 21.7606C0.160588 21.0055 -0.000204117 20.1962 1.94462e-07 19.379V14.325C1.94462e-07 12.8223 1.21956 11.6028 2.72222 11.6028ZM23.1389 11.6028H28.3889C29.8916 11.6028 31.1111 12.8223 31.1111 14.325V19.3805C31.1113 20.3343 30.8922 21.2754 30.4708 22.1311C30.0494 22.9868 29.4369 23.7341 28.6806 24.3153C27.9244 24.8966 27.0446 25.2962 26.1094 25.4833C25.1741 25.6704 24.2083 25.6399 23.2867 25.3943C23.6196 24.6974 23.8607 23.9492 23.9944 23.1652C24.2817 23.2336 24.5798 23.2684 24.8889 23.2694C25.9203 23.2694 26.9094 22.8597 27.6387 22.1304C28.3681 21.4011 28.7778 20.4119 28.7778 19.3805V14.325C28.7778 14.2218 28.7368 14.1229 28.6639 14.05C28.5909 13.9771 28.492 13.9361 28.3889 13.9361H24.1002C24.0227 13.0791 23.6875 12.2657 23.1389 11.6028ZM15.5556 0.713867C16.7932 0.713867 17.9802 1.20553 18.8554 2.0807C19.7306 2.95587 20.2222 4.14286 20.2222 5.38053C20.2222 6.61821 19.7306 7.8052 18.8554 8.68037C17.9802 9.55554 16.7932 10.0472 15.5556 10.0472C14.3179 10.0472 13.1309 9.55554 12.2557 8.68037C11.3806 7.8052 10.8889 6.61821 10.8889 5.38053C10.8889 4.14286 11.3806 2.95587 12.2557 2.0807C13.1309 1.20553 14.3179 0.713867 15.5556 0.713867ZM25.6667 2.26942C26.6981 2.26942 27.6872 2.67914 28.4165 3.40845C29.1458 4.13776 29.5556 5.12691 29.5556 6.15831C29.5556 7.18971 29.1458 8.17886 28.4165 8.90817C27.6872 9.63748 26.6981 10.0472 25.6667 10.0472C24.6353 10.0472 23.6461 9.63748 22.9168 8.90817C22.1875 8.17886 21.7778 7.18971 21.7778 6.15831C21.7778 5.12691 22.1875 4.13776 22.9168 3.40845C23.6461 2.67914 24.6353 2.26942 25.6667 2.26942ZM5.44444 2.26942C6.47584 2.26942 7.46499 2.67914 8.1943 3.40845C8.92361 4.13776 9.33333 5.12691 9.33333 6.15831C9.33333 7.18971 8.92361 8.17886 8.1943 8.90817C7.46499 9.63748 6.47584 10.0472 5.44444 10.0472C4.41305 10.0472 3.42389 9.63748 2.69458 8.90817C1.96528 8.17886 1.55556 7.18971 1.55556 6.15831C1.55556 5.12691 1.96528 4.13776 2.69458 3.40845C3.42389 2.67914 4.41305 2.26942 5.44444 2.26942ZM15.5556 3.0472C14.9367 3.0472 14.3432 3.29303 13.9056 3.73062C13.4681 4.1682 13.2222 4.7617 13.2222 5.38053C13.2222 5.99937 13.4681 6.59286 13.9056 7.03045C14.3432 7.46803 14.9367 7.71387 15.5556 7.71387C16.1744 7.71387 16.7679 7.46803 17.2055 7.03045C17.6431 6.59286 17.8889 5.99937 17.8889 5.38053C17.8889 4.7617 17.6431 4.1682 17.2055 3.73062C16.7679 3.29303 16.1744 3.0472 15.5556 3.0472ZM25.6667 4.60276C25.2541 4.60276 24.8584 4.76664 24.5667 5.05837C24.275 5.35009 24.1111 5.74575 24.1111 6.15831C24.1111 6.57087 24.275 6.96653 24.5667 7.25826C24.8584 7.54998 25.2541 7.71387 25.6667 7.71387C26.0792 7.71387 26.4749 7.54998 26.7666 7.25826C27.0583 6.96653 27.2222 6.57087 27.2222 6.15831C27.2222 5.74575 27.0583 5.35009 26.7666 5.05837C26.4749 4.76664 26.0792 4.60276 25.6667 4.60276ZM5.44444 4.60276C5.03189 4.60276 4.63622 4.76664 4.3445 5.05837C4.05278 5.35009 3.88889 5.74575 3.88889 6.15831C3.88889 6.57087 4.05278 6.96653 4.3445 7.25826C4.63622 7.54998 5.03189 7.71387 5.44444 7.71387C5.857 7.71387 6.25266 7.54998 6.54439 7.25826C6.83611 6.96653 7 6.57087 7 6.15831C7 5.74575 6.83611 5.35009 6.54439 5.05837C6.25266 4.76664 5.857 4.60276 5.44444 4.60276Z" fill="#111111"/>
</svg>
